<svg width="512" height="512" xmlns="http://www.w3.org/2000/svg">

 <g>
  <title>background</title>
  <rect fill="none" id="canvas_background" height="402" width="582" y="-1" x="-1"/>
 </g>
 <g>
  <title>Layer 1</title>
  <path fill="#ff0000" id="svg_1" d="m413.41797,360.8125c-32.25391,-27.26562 -50.75,-67.11719 -50.75,-109.33594l0,-59.47656c0,-75.07031 -55.76563,-137.21484 -128,-147.625l0,-23.04297c0,-11.79687 -9.55859,-21.33203 -21.33594,-21.33203c-11.77344,0 -21.33203,9.53516 -21.33203,21.33203l0,23.04297c-72.25781,10.41016 -128,72.55469 -128,147.625l0,59.47656c0,42.21875 -18.49609,82.07032 -50.94531,109.50391c-8.29688,7.10547 -13.05469,17.42969 -13.05469,28.35156c0,20.58985 16.74609,37.33594 37.33203,37.33594l352,0c20.58985,0 37.33594,-16.74609 37.33594,-37.33594c0,-10.92187 -4.75781,-21.24609 -13.25,-28.51953zm0,0"/>
  <path fill="#ff0707" id="svg_2" d="m213.33203,512c38.63672,0 70.95703,-27.54297 78.37891,-64l-156.75781,0c7.42578,36.45703 39.74609,64 78.3789,64zm0,0"/>
 </g>
</svg>