<svg width="16" height="16" xmlns="http://www.w3.org/2000/svg" class="bi bi-display">

 <g>
  <title>background</title>
  <rect fill="none" id="canvas_background" height="402" width="582" y="-1" x="-1"/>
 </g>
 <g>
  <title>Layer 1</title>
  <path stroke="#000000" stroke-opacity="0" fill="#ffffff" id="svg_1" d="m0,4s0,-2 2,-2l12,0s2,0 2,2l0,6s0,2 -2,2l-4,0c0,0.667 0.083,1.167 0.25,1.5l0.75,0a0.5,0.5 0 0 1 0,1l-6,0a0.5,0.5 0 0 1 0,-1l0.75,0c0.167,-0.333 0.25,-0.833 0.25,-1.5l-4,0s-2,0 -2,-2l0,-6zm1.398,-0.855a0.758,0.758 0 0 0 -0.254,0.302a1.46,1.46 0 0 0 -0.144,0.563l0,5.99c0,0.325 0.078,0.502 0.145,0.602c0.07,0.105 0.17,0.188 0.302,0.254a1.464,1.464 0 0 0 0.538,0.143l0.025,0.001l11.99,0c0.325,0 0.502,-0.078 0.602,-0.145a0.758,0.758 0 0 0 0.254,-0.302a1.464,1.464 0 0 0 0.143,-0.538l0.001,-0.025l0,-5.99c0,-0.325 -0.078,-0.502 -0.145,-0.602a0.757,0.757 0 0 0 -0.302,-0.254a1.46,1.46 0 0 0 -0.563,-0.144l-11.99,0c-0.325,0 -0.502,0.078 -0.602,0.145z"/>
 </g>
</svg>