<svg width="409.6" height="409.6" xmlns="http://www.w3.org/2000/svg">

 <g>
  <title>Layer 1</title>
  <g id="svg_1">
   <g id="svg_2">
    <path fill="#f9f9f9" id="svg_3" d="m392.533,17.067l-375.466,0c-9.426,0 -17.067,7.641 -17.067,17.066s7.641,17.067 17.067,17.067l375.467,0c9.426,0 17.067,-7.641 17.067,-17.067s-7.642,-17.066 -17.068,-17.066z"/>
   </g>
  </g>
  <g id="svg_4">
   <g id="svg_5">
    <path fill="#f9f9f9" id="svg_6" d="m392.533,187.733l-375.466,0c-9.426,0 -17.067,7.641 -17.067,17.067s7.641,17.067 17.067,17.067l375.467,0c9.426,0 17.067,-7.641 17.067,-17.067s-7.642,-17.067 -17.068,-17.067z"/>
   </g>
  </g>
  <g id="svg_7">
   <g id="svg_8">
    <path fill="#f9f9f9" id="svg_9" d="m392.533,358.4l-375.466,0c-9.426,0 -17.067,7.641 -17.067,17.067s7.641,17.067 17.067,17.067l375.467,0c9.426,0 17.067,-7.641 17.067,-17.067s-7.642,-17.067 -17.068,-17.067z"/>
   </g>
  </g>
  <g id="svg_10"/>
  <g id="svg_11"/>
  <g id="svg_12"/>
  <g id="svg_13"/>
  <g id="svg_14"/>
  <g id="svg_15"/>
  <g id="svg_16"/>
  <g id="svg_17"/>
  <g id="svg_18"/>
  <g id="svg_19"/>
  <g id="svg_20"/>
  <g id="svg_21"/>
  <g id="svg_22"/>
  <g id="svg_23"/>
  <g id="svg_24"/>
 </g>
</svg>